<?xml version="1.0" standalone="no"?><!DOCTYPE svg PUBLIC "-//W3C//DTD SVG 1.1//EN" "http://www.w3.org/Graphics/SVG/1.1/DTD/svg11.dtd"><svg t="1639362058237" class="icon" viewBox="0 0 1024 1024" version="1.1" xmlns="http://www.w3.org/2000/svg" p-id="3284" xmlns:xlink="http://www.w3.org/1999/xlink" width="32" height="32"><defs><style type="text/css"></style></defs><path d="M512 128a384 384 0 1 1 0 768A384 384 0 0 1 512 128z m0 64a320 320 0 1 0 0 640A320 320 0 0 0 512 192z" fill="#6893DF" p-id="3285"></path><path d="M546.048 703.552V572.544h79.104v24.192h59.392V384.512H546.048V315.264h-59.712v69.248H348.544v212.224h59.52v-24.192h78.272v131.008h59.712zM486.4 513.92H407.808V443.52H486.4V513.92z m138.56 0H546.688V443.52h78.272V513.92z" fill="#6893DF" p-id="3286"></path></svg>