<?xml version="1.0" standalone="no"?><!DOCTYPE svg PUBLIC "-//W3C//DTD SVG 1.1//EN"
        "http://www.w3.org/Graphics/SVG/1.1/DTD/svg11.dtd">
<svg t="1638414200062" class="icon" viewBox="0 0 1024 1024" version="1.1" xmlns="http://www.w3.org/2000/svg" p-id="2339"
     xmlns:xlink="http://www.w3.org/1999/xlink" width="32" height="32">
    <defs>
        <style type="text/css"></style>
    </defs>
    <path d="M512 755.8c127.7 0 231.6-103.9 231.6-231.6V231.6C743.6 103.9 639.7 0 512 0S280.4 103.9 280.4 231.6v292.6c0 127.7 103.9 231.6 231.6 231.6zM353.5 231.6c0-87.4 71.1-158.5 158.5-158.5s158.5 71.1 158.5 158.5v292.6c0 87.4-71.1 158.5-158.5 158.5s-158.5-71.1-158.5-158.5V231.6z"
          fill="#27D0D8" p-id="2340"></path>
    <path d="M853.3 292.6c-20.2 0-36.6 16.4-36.6 36.6v167.5c0.2 168.4-136.6 306.5-304.5 307.9-168.4-1.3-305.3-139.5-305-307.9V329.1c0-20.2-16.4-36.6-36.6-36.6S134 308.9 134 329.1v167.5c-0.3 196.1 149.6 359 341.3 379v75.2H292.6c-20.2 0-36.6 16.4-36.6 36.6 0 20.2 16.4 36.6 36.6 36.6h438.9c20.2 0 36.6-16.4 36.6-36.6 0-20.2-16.4-36.6-36.6-36.6H548.6v-75.2c191.5-19.8 341.6-182.8 341.3-379.1V329.1c0-20.2-16.4-36.5-36.6-36.5z"
          fill="#27D0D8" p-id="2341"></path>
</svg>