<?xml version="1.0" standalone="no"?><!DOCTYPE svg PUBLIC "-//W3C//DTD SVG 1.1//EN"
        "http://www.w3.org/Graphics/SVG/1.1/DTD/svg11.dtd">
<svg t="1638287702499" class="icon" viewBox="0 0 1041 1024" version="1.1" xmlns="http://www.w3.org/2000/svg" p-id="2565"
     xmlns:xlink="http://www.w3.org/1999/xlink" width="32.53125" height="32">
    <defs>
        <style type="text/css"></style>
    </defs>
    <path d="M783.694478 864.309336a85.453692 85.453692 0 1 1 85.453692-85.453692 85.60128 85.60128 0 0 1-85.453692 85.453692z m0-133.715103a48.261411 48.261411 0 1 0 48.261412 48.261411 48.409 48.409 0 0 0-48.261412-48.261411zM306.688724 887.923482c-69.661731 0-139.028286-15.939549-171.054972-47.818646a19.186494 19.186494 0 0 1-5.018006-17.710609c0-1.918649 22.285851-96.522823-16.234725-181.681338a209.575548 209.575548 0 0 0-30.993567-44.276524C46.195174 550.38878 0 493.714829 0 331.072396v-1.623472C1.328296 54.34412 276.875865 45.931581 308.312197 45.931581h19.924436C457.524083 45.931581 605.112497 118.840257 629.169409 322.955034c0 1.475884 5.165594 30.403213 69.218966 130.320569a49.146942 49.146942 0 0 1 7.379421 36.30675 48.113823 48.113823 0 0 1-24.794854 31.288744 488.370062 488.370062 0 0 1-52.246299 25.680384 528.218934 528.218934 0 0 1 0 118.070731c-8.264951 44.276524-72.6135 52.836652-125.007386 52.836652h-13.135369a27.451445 27.451445 0 0 0-6.936655 0v108.772661a19.776847 19.776847 0 0 1-5.460772 13.282958c-32.321863 32.912216-101.983594 48.409-171.497737 48.408999z m-137.552402-68.185847c56.083597 40.881991 223.30127 40.586814 276.728277-1.328296v-104.345008c0-15.644372 11.659485-33.945335 44.276524-33.945336h13.135369c54.607713 0 86.339222-11.511896 88.553048-22.433438 7.379421-39.11093-1.475884-120.284557-1.475884-121.170088a18.743729 18.743729 0 0 1 11.807073-19.334083A504.014434 504.014434 0 0 0 662.376802 488.696823c2.361415-1.475884 6.346302-4.132476 6.936655-7.084244a12.840192 12.840192 0 0 0-1.771061-7.527009c-68.481024-106.854012-74.974914-140.208993-75.417679-147.588414C565.706391 100.834471 383.729876 83.271449 328.089044 83.271449h-19.776847c-45.014466 0-269.939209 11.954662-270.972328 245.882298v1.475884c0 149.507063 39.848872 198.358828 75.122502 241.307057A233.337282 233.337282 0 0 1 147.588414 625.363694a345.652066 345.652066 0 0 1 21.547908 194.373941z"
          p-id="2566"></path>
    <path d="M783.694478 826.969467a18.743729 18.743729 0 0 0-18.59614 18.743729v20.072024a121.022499 121.022499 0 0 1-120.874911 121.0225H444.536303a121.022499 121.022499 0 0 1-120.727323-121.0225V537.843764a185.813813 185.813813 0 0 0 41.177168-360.853672V20.251197a18.59614 18.59614 0 1 0-37.044692 0v147.588414a193.783588 193.783588 0 0 0-22.728616-1.623473 189.355935 189.355935 0 0 0-22.728616 1.623473v-147.588414a18.59614 18.59614 0 0 0-37.19228 0v156.738895a185.813813 185.813813 0 0 0 41.177168 360.853672v327.941456a158.362368 158.362368 0 0 0 158.067191 158.21478h199.687124a158.21478 158.21478 0 0 0 158.067191-158.21478v-20.072024a18.59614 18.59614 0 0 0-18.59614-18.743729z m-478.481638-622.823107a146.11253 146.11253 0 0 1 22.728616 1.91865v38.520576a110.543722 110.543722 0 0 0-45.457232 0v-38.520576a143.160762 143.160762 0 0 1 22.728616-1.91865z m0 75.270092a73.794207 73.794207 0 1 1-73.794207 73.794207 73.794207 73.794207 0 0 1 73.794207-73.794207z m-148.769121 73.794207a148.769121 148.769121 0 0 1 88.553048-136.076518v42.80064a110.838899 110.838899 0 1 0 119.694204 0v-43.095817A148.769121 148.769121 0 1 1 156.443719 352.915482z"
          p-id="2567"></path>
    <path d="M939.252666 377.415158H722.15011a18.59614 18.59614 0 1 1 0-37.19228h217.102556a18.59614 18.59614 0 1 1 0 37.19228zM835.498011 278.088156h-147.588414a18.59614 18.59614 0 1 1 0-37.19228h147.588414a18.59614 18.59614 0 0 1 0 37.19228zM939.252666 476.594573H767.459753a18.59614 18.59614 0 0 1 0-37.192281h171.792913a18.59614 18.59614 0 1 1 0 37.192281zM939.252666 575.921575H736.613774a18.59614 18.59614 0 0 1 0-37.19228h202.638892a18.59614 18.59614 0 1 1 0 37.19228zM939.252666 675.248578h-246.472651a18.59614 18.59614 0 1 1 0-37.192281h246.472651a18.59614 18.59614 0 1 1 0 37.192281zM698.240786 778.855644a76.450798 76.450798 0 0 1 2.213827-18.59614H578.546583v-51.655945a212.674905 212.674905 0 0 1-37.192281 7.084244v63.167841a18.448552 18.448552 0 0 0 18.596141 18.596141h140.50417a78.221859 78.221859 0 0 1-2.213827-18.596141z"
          p-id="2568"></path>
    <path d="M1039.317611 265.247964a16.972668 16.972668 0 0 0-1.623472-4.575241v-1.033119a25.237619 25.237619 0 0 0-2.951769-3.984887L929.807008 150.719355a19.924436 19.924436 0 0 0-3.984887-2.951769h-1.033119a19.334082 19.334082 0 0 0-8.117363-1.918649H557.44144a288.535349 288.535349 0 0 1 26.565914 37.044692h313.477791v85.896457a18.59614 18.59614 0 0 0 18.59614 18.743728h86.339223v472.282925h-135.338576a84.420573 84.420573 0 0 1 2.066238 18.59614 86.486811 86.486811 0 0 1-2.066238 18.59614h153.934716a18.448552 18.448552 0 0 0 18.59614-18.59614V268.790086a14.758841 14.758841 0 0 0-0.295177-3.542122z m-104.640185-14.758842V208.278836l41.472344 41.472344z"
          p-id="2569"></path>
</svg>