<?xml version="1.0" standalone="no"?><!DOCTYPE svg PUBLIC "-//W3C//DTD SVG 1.1//EN"
        "http://www.w3.org/Graphics/SVG/1.1/DTD/svg11.dtd">
<svg t="1638546966683" class="icon" viewBox="0 0 1024 1024" version="1.1" xmlns="http://www.w3.org/2000/svg" p-id="1754"
     xmlns:xlink="http://www.w3.org/1999/xlink" width="32" height="32">
    <defs>
        <style type="text/css"></style>
    </defs>
    <path d="M887.03 499.72C876.24 301.19 711.9 142.85 510.88 142.85c-201.34 0-365.88 158.84-376.2 357.82C57.39 523.49 0.79 594.99 0.79 679.58 0.79 782.49 84.5 866.2 187.41 866.2c79.41 0 80.86-113.41 81.81-188.45 1.01-79.64-4.26-134.98-33.61-164.71-8.23-8.35-18.08-13.89-28.85-17.04 12.47-157.15 143.95-281.3 304.12-281.3 160.54 0 292.23 124.72 304.17 282.39-9.35 3.33-17.95 8.54-25.28 15.96-29.33 29.7-34.59 85.04-33.59 164.71 0.96 75.03 2.41 188.45 81.79 188.45 102.91 0 186.64-83.71 186.64-186.62 0.01-85.92-58.42-158.25-137.58-179.87z m-689.65 177.1c-1.01 79.41-7.72 108.06-13.8 117.46-61.51-2.03-110.93-52.7-110.93-114.7 0-62.66 50.5-113.76 112.99-114.75 5.28 7.07 12.77 31.28 11.74 111.99z m644.46 117.46c-6.08-9.4-12.79-38.05-13.8-117.46-1.03-80.69 6.43-104.92 11.74-111.99 62.47 0.96 112.99 52.06 112.99 114.75 0 62.01-49.42 112.67-110.93 114.7z"
          p-id="1755" fill="#1296db"></path>
</svg>